<svg width="32" height="33" fill="none" xmlns="http://www.w3.org/2000/svg"><ellipse cx="16" cy="16.359" rx="16" ry="16.024" fill="url('#paint0_linear_11_659')"/><path d="M8.661 17.043 19.567 6.196c.204-.203.532.044.394.296l-4.059 7.451a.25.25 0 0 0 .219.369h7.015a.25.25 0 0 1 .17.432l-12.293 11.49c-.22.206-.549-.085-.372-.33l5.82-8.039a.25.25 0 0 0-.202-.395H8.836a.25.25 0 0 1-.175-.427Z" fill="#fff"/><defs><linearGradient id="paint0_linear_11_659" x1="16" y1=".335" x2="16" y2="32.383" gradientUnits="userSpaceOnUse"><stop stop-color="#7BCBD4"/><stop offset="1" stop-color="#29C6B7"/></linearGradient></defs></svg>