<svg width="32" height="37" fill="none" xmlns="http://www.w3.org/2000/svg"><g clip-path="url('#clip0_11_347')"><path d="M31.593 27.999c.251-.435.407-.925.407-1.365V11.358c0-.44-.156-.93-.407-1.364L16 18.996 31.593 28Z" fill="#00599C"/><path d="m17.386 36.671 13.229-7.637c.38-.22.727-.6.978-1.035L16 18.996.407 28c.251.435.598.815.979 1.035l13.229 7.637c.761.44 2.009.44 2.77 0Z" fill="#004482"/><path d="M31.593 9.993c-.251-.435-.598-.815-.979-1.035L17.386 1.321c-.762-.44-2.01-.44-2.772 0L1.386 8.958C.623 9.398 0 10.478 0 11.358v15.275c0 .44.156.93.407 1.365L16 18.995l15.593-9.002Z" fill="#659AD2"/><path d="M16 29.663c-5.882 0-10.667-4.785-10.667-10.667C5.333 13.115 10.118 8.33 16 8.33c3.795 0 7.335 2.042 9.237 5.33l-4.616 2.67A5.356 5.356 0 0 0 16 13.664a5.34 5.34 0 0 0-5.333 5.333A5.34 5.34 0 0 0 16 24.33a5.356 5.356 0 0 0 4.621-2.669l4.617 2.671A10.705 10.705 0 0 1 16 29.662Z" fill="#fff"/><path d="M26.667 18.404H25.48v-1.186h-1.185v1.186h-1.185v1.185h1.185v1.185h1.185v-1.185h1.186v-1.185ZM31.111 18.404h-1.185v-1.186h-1.185v1.186h-1.185v1.185h1.185v1.185h1.185v-1.185h1.185v-1.185Z" fill="#fff"/></g><defs><clipPath id="clip0_11_347"><path fill="#fff" transform="translate(0 .991)" d="M0 0h32v36.009H0z"/></clipPath></defs></svg>