<svg width="32" height="32" fill="none" xmlns="http://www.w3.org/2000/svg"><path d="m30.116 0-2.57 28.797L15.99 32 4.468 28.801 1.9 0h28.216Z" fill="#264DE4"/><path d="m16.008 29.552 9.337-2.589L27.54 2.355H16.008v27.197Z" fill="#2965F1"/><path d="M16.008 13.037H7.787l.316 3.532h7.905v-3.532ZM16.008 5.887H7.15l.321 3.533h8.537V5.887ZM8.261 18.335l.495 5.547 7.236 2.008.016-.004V22.21l-.016.004-3.934-1.062-.251-2.818H8.26Z" fill="#EBEBEB"/><path d="m20.345 16.57-.41 4.58-3.94 1.064v3.675l7.242-2.007.053-.597.83-9.3.086-.948.638-7.15h-8.848V9.42h4.977l-.321 3.617h-4.656v3.532h4.35Z" fill="#fff"/></svg>