<svg width="32" height="24" fill="none" xmlns="http://www.w3.org/2000/svg"><g clip-path="url('#clip0_13_36')"><path d="M31.34 8.812c-.721-.5-2.372-.687-3.663-.437-.15-1.25-.841-2.344-2.042-3.313l-.69-.5-.481.719c-.6.938-.9 2.25-.81 3.5.03.437.18 1.219.63 1.906-.42.25-1.291.563-2.432.563H.144l-.06.25c-.21 1.25-.21 5.156 2.252 8.155 1.862 2.282 4.624 3.438 8.257 3.438 7.866 0 13.69-3.781 16.423-10.625 1.08.031 3.393 0 4.564-2.343.03-.063.09-.188.3-.657l.12-.25-.66-.406ZM17.498 0h-3.302v3.125h3.302V0Zm0 3.75h-3.302v3.125h3.302V3.75Zm-3.903 0h-3.303v3.125h3.303V3.75Zm-3.903 0H6.389v3.125h3.303V3.75ZM5.789 7.5H2.486v3.125H5.79V7.5Zm3.903 0H6.389v3.125h3.303V7.5Zm3.903 0h-3.303v3.125h3.303V7.5Zm3.903 0h-3.302v3.125h3.302V7.5Zm3.903 0H18.1v3.125H21.4V7.5Z" fill="#2396ED"/></g><defs><clipPath id="clip0_13_36"><path fill="#fff" d="M0 0h32v23.125H0z"/></clipPath></defs></svg>