<svg width="32" height="33" fill="none" xmlns="http://www.w3.org/2000/svg"><g clip-path="url('#clip0_11_315')" fill-rule="evenodd" clip-rule="evenodd"><path d="M17.017 1.073c-2.325.824-4.57 3.23-6.733 7.216-3.245 5.98-7.437 14.476-1.665 21.203 2.67 3.113 7.08 4.95 12.865 2.04 4.649-2.337 5.941-9.044 4.273-12.195-3.443-6.501-6.935-8.105-7.87-12.137-.624-2.688-.914-4.73-.87-6.127Z" fill="url('#paint0_linear_11_315')"/><path d="M17.017.993c-2.337.832-4.581 3.238-6.733 7.215-3.228 5.967-7.437 14.476-1.665 21.204 2.67 3.112 7.022 4.118 9.437 2.272 1.575-1.203 2.645-2.35 3.262-4.767.687-2.691.16-6.314-.2-7.979-.458-2.106-.607-4.417-.45-6.934l-.124-.152c-1.258-1.539-2.228-2.879-2.657-4.732-.624-2.688-.914-4.73-.87-6.127Z" fill="url('#paint1_linear_11_315')"/><path d="M15.082 2.04c-2.176 1.72-3.795 4.605-4.855 8.655-1.59 6.075-1.762 11.677-1.201 14.936 1.087 6.317 6.723 8.715 12.504 5.774 3.557-1.81 5.039-5.693 4.96-9.91-.08-4.364-8.517-9.312-10.01-12.955-.997-2.429-1.463-4.596-1.398-6.5Z" fill="url('#paint2_linear_11_315')"/><path d="M20.6 13.43c2.61 3.347 3.179 5.678 1.706 6.99-2.208 1.97-7.608 3.255-10.968.873-2.24-1.588-3.087-4.996-2.542-10.222a46.942 46.942 0 0 0-2.345 5.868c-.64 1.98-.826 4.054-.56 6.22.8 1.62 2.747 2.701 5.84 3.245 4.64.816 9.03.413 11.977-1.073 1.964-.99 2.893-1.975 2.787-2.957.07-1.448-.376-2.828-1.34-4.137-.965-1.31-2.483-2.912-4.555-4.807Z" fill="url('#paint3_linear_11_315')"/><path d="M10.4 10.087c-.022 2.418.6 4.716 1.865 6.895 1.897 3.268 4.112 6.498 7.427 9.174 2.21 1.785 3.975 2.362 5.297 1.73-1.086 1.943-2.24 2.895-3.463 2.856-1.834-.058-4.07-.86-7.655-5.167-2.389-2.87-4.023-5.587-4.903-8.147.14-1.016.287-2.028.444-3.036.156-1.007.485-2.442.988-4.305Z" fill="url('#paint4_linear_11_315')"/><path d="M16.006 13.405c.203 1.97.969 5.12 0 7.217-.97 2.098-5.446 5.887-4.21 9.225 1.236 3.338 4.247 2.589 6.136 1.05 1.889-1.538 2.9-4.04 3.124-5.798.224-1.76-.537-5.144-.784-8.088-.165-1.963-.053-3.646.336-5.049l-.579-.728-3.407-1.009c-.546.807-.751 1.867-.616 3.18Z" fill="url('#paint5_linear_11_315')"/><path d="M17.222 3.65c-1.103.466-2.148 1.39-3.134 2.77-1.48 2.07-2.234 3.312-1.676 7.416.372 2.737.638 5.254.798 7.553l4.772-13.864a47.438 47.438 0 0 1-.438-1.914 29.361 29.361 0 0 1-.322-1.96Z" fill="url('#paint6_linear_11_315')"/><path d="M17.973 7.498c-1.211.707-2.15 2.155-2.816 4.345-.666 2.19-1.275 5.252-1.827 9.185.736-2.502 1.225-4.314 1.466-5.436.361-1.683.485-4.064 1.443-5.68.64-1.077 1.217-1.882 1.734-2.414Z" fill="#330A4C" fill-opacity=".316"/><path d="M12.364 30.96c1.994.285 3.036.539 3.127.76.137.333-.252.637-1.358.432-.738-.136-1.327-.533-1.768-1.191Z" fill="#fff"/><path d="M13.366 3.65a25.752 25.752 0 0 0-2.85 4.166c-.804 1.467-1.378 2.562-1.723 3.284-.107.539-.16 1.333-.157 2.384.003 1.05.094 2.22.273 3.505a28.19 28.19 0 0 1 1.441-7.332c.804-2.37 1.809-4.373 3.016-6.007Z" fill="#EDEDED" fill-opacity=".603"/></g><defs><linearGradient id="paint0_linear_11_315" x1="16.569" y1="3.432" x2="15.459" y2="32.968" gradientUnits="userSpaceOnUse"><stop stop-color="#D9D8DC"/><stop offset="1" stop-color="#fff" stop-opacity=".385"/></linearGradient><linearGradient id="paint1_linear_11_315" x1="17.071" y1="3.424" x2="5.47" y2="28.851" gradientUnits="userSpaceOnUse"><stop stop-color="#8D67AF" stop-opacity=".672"/><stop offset="1" stop-color="#9F8DAF"/></linearGradient><linearGradient id="paint2_linear_11_315" x1="18.366" y1="11.662" x2="18.366" y2="32.109" gradientUnits="userSpaceOnUse"><stop stop-color="#26053D" stop-opacity=".762"/><stop offset="1" stop-color="#B7B4B4" stop-opacity=".278"/></linearGradient><linearGradient id="paint3_linear_11_315" x1="7.874" y1="13.046" x2="13.08" y2="26.834" gradientUnits="userSpaceOnUse"><stop stop-color="#91739F" stop-opacity=".46"/><stop offset="1" stop-color="#32054F" stop-opacity=".54"/></linearGradient><linearGradient id="paint4_linear_11_315" x1="21.788" y1="30.002" x2="7.474" y2="18.141" gradientUnits="userSpaceOnUse"><stop stop-color="#463D49" stop-opacity=".331"/><stop offset="1" stop-color="#340A50" stop-opacity=".821"/></linearGradient><linearGradient id="paint5_linear_11_315" x1="18.846" y1="11.856" x2="8.75" y2="27.214" gradientUnits="userSpaceOnUse"><stop stop-color="#715383" stop-opacity=".145"/><stop offset="1" stop-color="#F4F4F4" stop-opacity=".234"/></linearGradient><linearGradient id="paint6_linear_11_315" x1="19.811" y1="16.54" x2="12.662" y2="16.104" gradientUnits="userSpaceOnUse"><stop stop-color="#A5A1A8" stop-opacity=".356"/><stop offset="1" stop-color="#370C50" stop-opacity=".582"/></linearGradient><clipPath id="clip0_11_315"><path fill="#fff" transform="translate(0 .993)" d="M0 0h32v31.999H0z"/></clipPath></defs></svg>