<svg width="32" height="32" fill="none" xmlns="http://www.w3.org/2000/svg"><g clip-path="url('#clip0_11_774')"><path d="M10.67 32a5.333 5.333 0 0 0 5.334-5.333v-5.334h-5.333a5.333 5.333 0 0 0 0 10.667Z" fill="#0ACF83"/><path d="M5.337 16a5.333 5.333 0 0 1 5.334-5.333h5.333v10.666h-5.333A5.333 5.333 0 0 1 5.337 16Z" fill="#A259FF"/><path d="M5.337 5.333A5.333 5.333 0 0 1 10.667 0H16v10.667h-5.33a5.333 5.333 0 0 1-5.333-5.334Z" fill="#F24E1E"/><path d="M16.004 0h5.333a5.333 5.333 0 1 1 0 10.667h-5.333V0Z" fill="#FF7262"/><path d="M26.67 16a5.333 5.333 0 1 1-10.666 0 5.333 5.333 0 0 1 10.667 0Z" fill="#1ABCFE"/></g><defs><clipPath id="clip0_11_774"><path fill="#fff" d="M0 0h32v32H0z"/></clipPath></defs></svg>