<svg width="32" height="32" fill="none" xmlns="http://www.w3.org/2000/svg"><g clip-path="url('#clip0_13_15')"><path d="m19.62 11.558-3.203 2.98-2.972-5.995 1.538-3.448c.4-.7 1.024-.692 1.414 0l3.223 6.463Z" fill="#FFA000"/><path d="m13.445 8.543 2.972 5.995-11.97 11.135 8.998-17.13Z" fill="#F57F17"/><path d="M23.123 7.003c.572-.55 1.164-.362 1.315.417l3.116 18.105-10.328 6.2c-.36.2-1.32.286-1.32.286s-.874-.104-1.207-.3L4.447 25.673l18.676-18.67Z" fill="#FFCA28"/><path d="m13.445 8.543-8.997 17.13L8.455.638c.148-.78.592-.855.988-.167l4.002 8.072Z" fill="#FFA000"/></g><defs><clipPath id="clip0_13_15"><path fill="#fff" d="M0 0h32v32H0z"/></clipPath></defs></svg>