<svg width="32" height="32" fill="none" xmlns="http://www.w3.org/2000/svg"><g clip-path="url('#clip0_11_872')"><path d="M31.396 14.575 17.425.604a2.06 2.06 0 0 0-2.914 0l-2.9 2.9 3.68 3.68a2.424 2.424 0 0 1 2.518.587 2.45 2.45 0 0 1 .581 2.533l3.547 3.547a2.445 2.445 0 0 1 3.064 1.378 2.452 2.452 0 1 1-4.534.005l-3.308-3.308v8.705a2.453 2.453 0 1 1-2.015-.071v-8.786a2.45 2.45 0 0 1-1.331-3.216l-3.63-3.628-9.58 9.57a2.06 2.06 0 0 0 0 2.915l13.972 13.97a2.06 2.06 0 0 0 2.914 0L31.396 17.5a2.063 2.063 0 0 0 0-2.915" fill="#F03C2E"/></g><defs><clipPath id="clip0_11_872"><path fill="#fff" d="M0 0h32v32H0z"/></clipPath></defs></svg>