<svg width="32" height="32" fill="none" xmlns="http://www.w3.org/2000/svg"><g clip-path="url('#clip0_13_12')"><path d="M16 0C7.165 0 0 7.163 0 16c0 7.07 4.585 13.067 10.942 15.183.8.148 1.093-.348 1.093-.77 0-.382-.015-1.642-.022-2.979-4.45.968-5.39-1.888-5.39-1.888-.728-1.85-1.777-2.34-1.777-2.34-1.451-.994.11-.974.11-.974 1.606.113 2.452 1.65 2.452 1.65 1.427 2.445 3.743 1.738 4.657 1.33.143-1.035.558-1.74 1.015-2.14-3.554-.405-7.29-1.777-7.29-7.907 0-1.747.626-3.175 1.65-4.295-.167-.403-.715-2.03.154-4.234 0 0 1.344-.43 4.401 1.64A15.337 15.337 0 0 1 16 7.737c1.36.006 2.73.184 4.008.539 3.054-2.07 4.396-1.64 4.396-1.64.87 2.203.323 3.83.157 4.234 1.026 1.12 1.646 2.548 1.646 4.295 0 6.145-3.742 7.498-7.305 7.894.574.497 1.085 1.47 1.085 2.963 0 2.14-.019 3.864-.019 4.39 0 .427.288.926 1.1.768C27.42 29.063 32 23.067 32 16c0-8.837-7.164-16-16-16ZM5.993 22.793c-.036.079-.16.103-.275.048-.116-.052-.18-.16-.143-.24.034-.082.16-.105.275-.05.117.052.183.162.143.242Zm.787.702c-.077.07-.226.038-.327-.074-.105-.112-.124-.26-.047-.333.079-.07.223-.037.328.074.105.113.125.261.046.333Zm.54.898c-.099.068-.259.005-.358-.138-.098-.142-.098-.313.002-.381s.257-.007.358.134c.098.145.098.316-.002.385Zm.913 1.04c-.088.098-.275.072-.412-.06-.14-.13-.178-.312-.09-.41.088-.096.276-.069.414.062.139.129.181.313.088.409Zm1.18.352c-.039.125-.219.183-.4.13-.181-.056-.3-.202-.263-.33.038-.125.218-.184.401-.128.18.055.3.2.262.328Zm1.343.15c.004.131-.15.24-.34.243-.19.004-.346-.103-.348-.232 0-.134.15-.242.342-.245.19-.004.346.102.346.233Zm1.32-.051c.022.128-.11.26-.3.296-.185.034-.357-.046-.38-.173-.023-.132.111-.265.297-.299.189-.033.358.045.382.176Z" fill="#CBC7D1"/></g><defs><clipPath id="clip0_13_12"><path fill="#fff" d="M0 0h32v31.25H0z"/></clipPath></defs></svg>