<svg width="32" height="32" fill="none" xmlns="http://www.w3.org/2000/svg"><g clip-path="url('#clip0_11_761')"><path d="M4.46 28.802 1.892.001h28.216l-2.57 28.797L15.982 32 4.46 28.802Z" fill="#E44D26"/><path d="m25.337 26.964 2.197-24.608H16v27.197l9.337-2.589Z" fill="#F16529"/><path d="M15.988 5.888H7.142l.953 10.682H16v-3.532h-4.674l-.323-3.617H16V5.888h-.012ZM16 22.2l-.015.004-3.934-1.062-.25-2.817H8.253l.495 5.546 7.236 2 .016-.005V22.2Z" fill="#EBEBEB"/><path d="M15.988 16.57h4.35l-.4 4.58-3.94 1.063v3.675l7.242-2.007.97-10.845H16l-.012 3.534Zm8.764-9.734.084-.948h-8.85V9.42h8.532l.07-.794.164-1.79Z" fill="#fff"/></g><defs><clipPath id="clip0_11_761"><path fill="#fff" d="M0 0h32v32H0z"/></clipPath></defs></svg>