<svg width="32" height="33" fill="none" xmlns="http://www.w3.org/2000/svg"><g clip-path="url('#clip0_11_206')"><path d="M0 .999h32v31.998H0V1Z" fill="#F7DF1E"/><path d="m8.414 27.74 2.449-1.482c.472.838.902 1.547 1.933 1.547.988 0 1.611-.387 1.611-1.89V15.69h3.007v10.267c0 3.115-1.826 4.532-4.49 4.532-2.405 0-3.801-1.245-4.51-2.75v.001Zm10.634-.322L21.496 26c.645 1.053 1.482 1.826 2.964 1.826 1.247 0 2.041-.623 2.041-1.482 0-1.031-.816-1.396-2.19-1.998l-.753-.322c-2.17-.923-3.608-2.083-3.608-4.532 0-2.256 1.718-3.974 4.403-3.974 1.912 0 3.287.666 4.275 2.406l-2.342 1.503c-.515-.923-1.074-1.288-1.933-1.288-.88 0-1.44.558-1.44 1.288 0 .903.56 1.268 1.848 1.826l.752.323c2.556 1.095 3.995 2.212 3.995 4.725 0 2.707-2.126 4.189-4.983 4.189-2.793 0-4.597-1.332-5.478-3.072" fill="#000"/></g><defs><clipPath id="clip0_11_206"><path fill="#fff" transform="translate(0 .999)" d="M0 0h32v31.999H0z"/></clipPath></defs></svg>