<svg width="32" height="34" fill="none" xmlns="http://www.w3.org/2000/svg"><g clip-path="url('#clip0_11_664')"><path fill-rule="evenodd" clip-rule="evenodd" d="M31.76 7.82a.522.522 0 0 1 .019.134v7.033a.513.513 0 0 1-.258.444l-5.893 3.399v6.736a.514.514 0 0 1-.256.444l-12.303 7.093c-.028.016-.06.026-.09.037-.011.004-.022.011-.034.014a.514.514 0 0 1-.263 0c-.014-.004-.027-.011-.04-.016-.028-.01-.058-.02-.085-.035L.257 26.01A.512.512 0 0 1 0 25.565V4.468c0-.046.006-.091.018-.135.004-.014.013-.028.018-.043.01-.026.018-.054.032-.079.01-.017.024-.03.036-.046.014-.02.028-.041.045-.06.015-.014.034-.025.05-.038.02-.015.036-.032.057-.044L6.408.477a.513.513 0 0 1 .512 0l6.15 3.546h.002c.02.013.037.029.056.044.017.013.035.024.05.038.018.019.03.04.046.06.01.016.026.03.035.046.014.026.023.053.033.08.005.014.014.028.018.043a.518.518 0 0 1 .018.134v13.177l5.125-2.955V7.954c0-.045.006-.09.018-.134.004-.015.013-.029.018-.043.01-.027.019-.055.033-.08.01-.017.024-.03.034-.045.016-.02.029-.042.047-.06.014-.015.033-.026.05-.038.019-.016.035-.033.056-.045l6.152-3.546a.512.512 0 0 1 .512 0l6.15 3.546c.022.013.038.03.058.044.016.013.034.024.049.038.018.019.03.04.046.06.011.016.026.03.034.046.015.025.024.053.034.08.006.014.014.028.018.043Zm-1.007 6.87V8.842l-2.152 1.24-2.973 1.715v5.848l5.126-2.955Zm-6.15 10.579v-5.852l-2.925 1.673-8.352 4.774v5.907l11.277-6.502ZM1.025 5.356v19.913l11.276 6.5v-5.905l-5.89-3.338-.003-.002-.002-.001c-.02-.012-.037-.028-.055-.042-.016-.013-.035-.023-.049-.038l-.001-.002c-.017-.015-.028-.035-.042-.053-.013-.018-.029-.032-.039-.05v-.002c-.012-.02-.019-.042-.027-.064-.009-.02-.02-.037-.025-.058-.006-.025-.007-.05-.01-.076-.002-.019-.008-.038-.008-.057V8.31L3.178 6.596l-2.153-1.24Zm5.639-3.842L1.539 4.468l5.123 2.954 5.124-2.955-5.124-2.953h.002ZM9.329 19.95l2.972-1.714V5.356l-2.152 1.24-2.973 1.715v12.88l2.153-1.24ZM25.116 5l-5.124 2.954 5.123 2.954 5.124-2.954L25.116 5Zm-.513 6.797-2.974-1.714-2.152-1.241v5.848l2.973 1.714 2.153 1.241v-5.848Zm-11.79 13.179 7.515-4.297 3.757-2.147-5.12-2.953-5.895 3.4-5.373 3.097 5.116 2.9Z" fill="#FF2D20"/></g><defs><clipPath id="clip0_11_664"><path fill="#fff" transform="translate(0 .408)" d="M0 0h32v33.329H0z"/></clipPath></defs></svg>