<svg width="32" height="33" fill="none" xmlns="http://www.w3.org/2000/svg"><g clip-path="url('#clip0_11_655')"><path d="M14.952.27c-.069.006-.288.028-.485.044C9.922.724 5.665 3.18 2.97 6.954a15.873 15.873 0 0 0-2.825 7c-.128.88-.144 1.14-.144 2.334 0 1.194.016 1.453.144 2.334.87 6.017 5.146 11.072 10.945 12.945 1.038.335 2.133.564 3.378.702.485.053 2.58.053 3.066 0 2.149-.238 3.97-.77 5.765-1.688.275-.141.328-.179.29-.21-.024-.02-1.197-1.595-2.605-3.5l-2.559-3.46-3.206-4.752c-1.764-2.612-3.216-4.748-3.228-4.748-.013-.003-.025 2.108-.031 4.686-.01 4.513-.013 4.695-.07 4.801a.569.569 0 0 1-.274.285c-.1.05-.188.06-.66.06h-.542l-.144-.091a.585.585 0 0 1-.21-.229l-.065-.14.006-6.28.01-6.284.097-.122a.86.86 0 0 1 .231-.191c.129-.063.179-.07.72-.07.638 0 .744.026.91.208.047.05 1.783 2.668 3.86 5.822a14326 14326 0 0 0 6.312 9.576l2.534 3.843.128-.085c1.136-.739 2.337-1.791 3.288-2.888a15.959 15.959 0 0 0 3.766-8.19c.128-.88.144-1.14.144-2.334 0-1.193-.016-1.453-.144-2.333-.87-6.017-5.146-11.073-10.945-12.946A16.778 16.778 0 0 0 17.58.311c-.3-.032-2.368-.066-2.628-.041Zm6.55 9.691c.15.075.272.22.316.37.025.081.031 1.823.025 5.747l-.01 5.632-.99-1.522-.995-1.522v-4.094c0-2.647.012-4.135.03-4.207a.638.638 0 0 1 .31-.395c.129-.065.176-.072.667-.072.463 0 .544.007.647.063Z" fill="#000"/></g><defs><clipPath id="clip0_11_655"><path fill="#fff" transform="translate(0 .261)" d="M0 0h32v32.047H0z"/></clipPath></defs></svg>