<svg width="32" height="33" fill="none" xmlns="http://www.w3.org/2000/svg"><g clip-path="url('#clip0_11_214')"><path d="M0 16.693c0 4.585 7.164 8.302 16 8.302s16-3.717 16-8.302c0-4.584-7.164-8.301-16-8.301S0 12.109 0 16.693Z" fill="url('#paint0_radial_11_214')"/><path d="M16 24.378c8.491 0 15.375-3.44 15.375-7.685 0-4.244-6.884-7.685-15.375-7.685S.625 12.45.625 16.693c0 4.245 6.884 7.685 15.375 7.685Z" fill="#777BB3"/><path d="M8.693 17.646c.698 0 1.22-.127 1.55-.377.325-.248.55-.677.669-1.276.11-.56.068-.95-.125-1.162-.197-.215-.623-.324-1.267-.324H8.405l-.62 3.14h.908Zm-3.65 3.867a.174.174 0 0 1-.168-.129.169.169 0 0 1-.002-.075l1.64-8.319a.175.175 0 0 1 .17-.139h3.533c1.11 0 1.937.297 2.456.885.523.59.684 1.413.48 2.45a3.88 3.88 0 0 1-.425 1.164c-.2.352-.462.677-.782.967a3.44 3.44 0 0 1-1.287.76c-.463.149-1.057.225-1.767.225H7.46l-.409 2.073a.175.175 0 0 1-.17.139H5.043Z" fill="#000"/><path d="M8.548 14.678h.972c.777 0 1.047.168 1.138.268.152.167.181.517.084 1.014-.11.557-.314.952-.606 1.173-.298.227-.784.342-1.443.342h-.697l.552-2.797Zm1.668-1.998H6.683a.35.35 0 0 0-.221.079.342.342 0 0 0-.12.198l-1.64 8.32a.338.338 0 0 0 .193.375.35.35 0 0 0 .148.033h1.838a.35.35 0 0 0 .22-.079.342.342 0 0 0 .12-.199l.382-1.934H8.89c.728 0 1.34-.079 1.821-.233.495-.158.95-.427 1.352-.798.333-.302.607-.641.815-1.008.207-.367.357-.776.443-1.216.215-1.09.04-1.963-.519-2.595-.554-.625-1.424-.943-2.587-.943Zm-2.64 5.137h1.117c.74 0 1.293-.137 1.655-.412.362-.276.607-.735.734-1.38.122-.618.066-1.054-.166-1.308s-.698-.381-1.396-.381H8.261l-.686 3.481Zm2.64-4.794c1.063 0 1.839.275 2.326.825.487.55.634 1.318.44 2.305-.08.406-.216.777-.406 1.114-.191.336-.44.645-.748.924-.367.338-.775.58-1.223.723-.449.144-1.02.216-1.714.216H7.317l-.436 2.212H5.044l1.639-8.32h3.533" fill="#fff"/><path d="M17.365 19.302a.175.175 0 0 1-.134-.063.17.17 0 0 1-.037-.141l.725-3.681c.07-.35.052-.602-.047-.708-.062-.065-.245-.174-.788-.174H15.77l-.911 4.628a.175.175 0 0 1-.17.139h-1.824a.176.176 0 0 1-.134-.063.17.17 0 0 1-.036-.142l1.64-8.319a.175.175 0 0 1 .17-.139h1.823a.176.176 0 0 1 .134.063.17.17 0 0 1 .036.142l-.396 2.008h1.414c1.076 0 1.806.187 2.232.572.434.393.568 1.021.402 1.867l-.763 3.872a.175.175 0 0 1-.17.139h-1.852Z" fill="#000"/><path d="M16.328 10.469h-1.823a.35.35 0 0 0-.341.277l-1.64 8.319a.337.337 0 0 0 .073.283.346.346 0 0 0 .268.125h1.823a.35.35 0 0 0 .221-.078.341.341 0 0 0 .12-.2l.885-4.488h1.17c.542 0 .656.114.66.119.033.034.076.196.005.558l-.725 3.68a.339.339 0 0 0 .193.376.35.35 0 0 0 .148.033h1.852a.35.35 0 0 0 .22-.078.342.342 0 0 0 .12-.2l.763-3.87c.18-.91.026-1.591-.455-2.027-.458-.416-1.227-.618-2.35-.618h-1.202l.356-1.804a.34.34 0 0 0-.193-.375.35.35 0 0 0-.148-.033Zm0 .342-.436 2.212h1.624c1.022 0 1.727.176 2.115.527.387.351.503.921.349 1.709l-.763 3.871h-1.852l.725-3.68c.083-.42.052-.705-.091-.857-.143-.153-.448-.229-.915-.229h-1.457l-.939 4.766h-1.823l1.64-8.32h1.823" fill="#fff"/><path d="M23.034 17.646c.698 0 1.22-.127 1.55-.377.325-.248.55-.677.669-1.276.11-.56.068-.95-.125-1.162-.197-.215-.623-.324-1.267-.324h-1.116l-.618 3.14h.907Zm-3.65 3.867a.174.174 0 0 1-.168-.129.169.169 0 0 1-.002-.075l1.64-8.319a.17.17 0 0 1 .06-.1.175.175 0 0 1 .11-.038h3.533c1.11 0 1.937.296 2.457.884.522.59.683 1.413.479 2.45a3.881 3.881 0 0 1-.425 1.164c-.2.352-.462.677-.782.967a3.44 3.44 0 0 1-1.287.76c-.463.149-1.057.225-1.767.225H21.8l-.409 2.073a.175.175 0 0 1-.17.139h-1.838Z" fill="#000"/><path d="M22.889 14.678h.972c.777 0 1.047.168 1.138.268.153.167.181.517.084 1.014-.11.557-.314.952-.606 1.173-.299.227-.784.342-1.443.342h-.696l.55-2.797Zm1.668-1.998h-3.533a.35.35 0 0 0-.221.079.342.342 0 0 0-.12.198l-1.64 8.32a.339.339 0 0 0 .193.375.35.35 0 0 0 .148.033h1.838a.35.35 0 0 0 .22-.079.342.342 0 0 0 .12-.199l.382-1.934h1.288c.728 0 1.34-.079 1.821-.233.494-.158.95-.427 1.352-.798a4.08 4.08 0 0 0 .815-1.008c.207-.367.357-.776.443-1.216.215-1.09.04-1.964-.519-2.595-.554-.625-1.424-.943-2.587-.943Zm-2.64 5.137h1.117c.74 0 1.293-.137 1.655-.412.363-.276.607-.735.734-1.38.122-.618.067-1.054-.166-1.308-.232-.254-.698-.381-1.396-.381h-1.259l-.686 3.481Zm2.64-4.794c1.063 0 1.838.275 2.326.825.487.55.634 1.318.44 2.305-.08.406-.216.777-.407 1.114-.19.336-.44.645-.747.924-.367.338-.775.58-1.223.723-.449.144-1.02.216-1.714.216h-1.574l-.436 2.212h-1.837l1.639-8.32h3.533" fill="#fff"/></g><defs><radialGradient id="paint0_radial_11_214" cx="0" cy="0" r="1" gradientUnits="userSpaceOnUse" gradientTransform="matrix(21.0102 0 0 20.723 9.606 11.31)"><stop stop-color="#AEB2D5"/><stop offset=".3" stop-color="#AEB2D5"/><stop offset=".75" stop-color="#484C89"/><stop offset="1" stop-color="#484C89"/></radialGradient><clipPath id="clip0_11_214"><path fill="#fff" transform="translate(0 .995)" d="M0 0h32v31.999H0z"/></clipPath></defs></svg>