<svg width="32" height="33" fill="none" xmlns="http://www.w3.org/2000/svg"><g clip-path="url('#clip0_11_648')"><path d="M16 19.049a2.86 2.86 0 0 0 2.858-2.862A2.86 2.86 0 0 0 16 13.325a2.86 2.86 0 0 0-2.857 2.862A2.86 2.86 0 0 0 16 19.05Z" fill="#00D8FF"/><path clip-rule="evenodd" d="M16 10.369c3.837 0 7.4.551 10.088 1.478 3.238 1.116 5.229 2.808 5.229 4.34 0 1.597-2.11 3.395-5.587 4.548-2.629.873-6.088 1.328-9.73 1.328-3.734 0-7.27-.427-9.928-1.337C2.71 19.574.683 17.753.683 16.187c0-1.52 1.9-3.199 5.093-4.313 2.698-.942 6.35-1.505 10.224-1.505Z" stroke="#00D8FF" stroke-width="2.734"/><path clip-rule="evenodd" d="M10.943 13.295c1.916-3.329 4.174-6.145 6.318-8.014 2.583-2.251 5.04-3.133 6.366-2.367 1.381.797 1.882 3.526 1.143 7.118-.558 2.717-1.893 5.945-3.712 9.105-1.866 3.24-4.002 6.093-6.116 7.944-2.676 2.343-5.263 3.191-6.618 2.409-1.315-.76-1.818-3.247-1.187-6.574.533-2.81 1.87-6.26 3.805-9.621Z" stroke="#00D8FF" stroke-width="2.734"/><path clip-rule="evenodd" d="M10.947 19.145c-1.922-3.325-3.23-6.69-3.777-9.484-.657-3.365-.192-5.939 1.132-6.706 1.38-.8 3.99.128 6.73 2.563 2.07 1.842 4.196 4.612 6.021 7.768 1.87 3.237 3.273 6.515 3.819 9.275.69 3.492.131 6.16-1.223 6.944-1.313.762-3.716-.044-6.279-2.253-2.165-1.866-4.482-4.75-6.423-8.107Z" stroke="#00D8FF" stroke-width="2.734"/></g><defs><clipPath id="clip0_11_648"><path fill="#fff" transform="translate(0 .19)" d="M0 0h32v32.047H0z"/></clipPath></defs></svg>