<svg width="32" height="29" fill="none" xmlns="http://www.w3.org/2000/svg"><g clip-path="url('#clip0_11_666')"><path d="M16 17.6a2.854 2.854 0 0 0 2.852-2.857A2.854 2.854 0 0 0 16 11.887a2.854 2.854 0 0 0-2.852 2.856A2.854 2.854 0 0 0 16 17.6Z" fill="#61DAFB"/><path d="M16 20.596c8.452 0 15.304-2.62 15.304-5.853 0-3.232-6.852-5.852-15.304-5.852S.696 11.511.696 14.743 7.548 20.596 16 20.596Z" stroke="#61DAFB"/><path d="M10.935 17.68c4.222 7.333 9.91 11.966 12.704 10.349 2.793-1.618 1.636-8.874-2.586-16.207C16.83 4.488 11.143-.145 8.349 1.472 5.555 3.09 6.713 10.347 10.935 17.68Z" stroke="#61DAFB"/><path d="M10.94 11.817c-4.227 7.331-5.387 14.584-2.592 16.2C11.143 29.633 16.834 25 21.06 17.669c4.226-7.33 5.386-14.583 2.591-16.2-2.795-1.615-8.487 3.018-12.713 10.348Z" stroke="#61DAFB"/></g><defs><clipPath id="clip0_11_666"><path fill="#fff" transform="translate(0 .487)" d="M0 0h32v28.513H0z"/></clipPath></defs></svg>