<svg width="32" height="33" fill="none" xmlns="http://www.w3.org/2000/svg"><g clip-path="url('#clip0_11_240')"><path d="M0 16.996v16h32.001v-32H0v16Zm25.788-1.275a3.985 3.985 0 0 1 2.002 1.153c.295.315.732.89.767 1.026.01.04-1.381.975-2.225 1.498-.03.02-.152-.11-.29-.314-.412-.6-.843-.859-1.504-.904-.97-.066-1.6.442-1.59 1.29 0 .248.035.396.137.6.214.442.61.706 1.854 1.244 2.291.985 3.271 1.635 3.88 2.56.68 1.031.834 2.677.372 3.901-.508 1.331-1.768 2.235-3.54 2.535-.549.097-1.85.082-2.439-.025-1.285-.228-2.503-.863-3.256-1.696-.294-.325-.868-1.174-.832-1.235a2.43 2.43 0 0 1 .295-.188l1.188-.685.92-.534.193.285c.269.412.858.975 1.214 1.163 1.021.539 2.423.462 3.113-.157.296-.27.417-.549.417-.96 0-.371-.045-.534-.238-.813-.25-.355-.758-.655-2.2-1.28-1.651-.71-2.363-1.153-3.012-1.854a4.222 4.222 0 0 1-.88-1.6c-.122-.452-.152-1.584-.056-2.041.34-1.6 1.544-2.708 3.282-3.038.564-.106 1.875-.066 2.428.071v-.002Zm-7.512 1.335.01 1.31h-4.165v11.835h-2.946V18.366H7.01v-1.285l.035-1.32c.015-.02 2.55-.03 5.623-.025l5.593.015.015 1.305Z" fill="#007ACC"/></g><defs><clipPath id="clip0_11_240"><path fill="#fff" transform="translate(0 .997)" d="M0 0h32v31.999H0z"/></clipPath></defs></svg>