<svg width="32" height="37" viewBox="0 0 32 37" fill="none" xmlns="http://www.w3.org/2000/svg">
<g clip-path="url(#clip0_11_347)">
<path d="M31.5929 27.9987C31.844 27.5638 32 27.0737 32 26.6337V11.3585C32 10.9185 31.8442 10.4285 31.593 9.99359L16 18.9961L31.5929 27.9987Z" fill="#00599C"/>
<path d="M17.3857 36.6713L30.6145 29.0338C30.9956 28.8137 31.3419 28.4338 31.593 27.9988L16.0001 18.9962L0.407227 27.9989C0.658312 28.4338 1.00477 28.8138 1.38574 29.0338L14.6145 36.6713C15.3765 37.1114 16.6237 37.1114 17.3857 36.6713Z" fill="#004482"/>
<path d="M31.593 9.99317C31.3418 9.55815 30.9953 9.17825 30.6144 8.95823L17.3856 1.32099C16.6236 0.880958 15.3764 0.880958 14.6144 1.32099L1.38562 8.95823C0.623477 9.39816 0 10.4782 0 11.3581V26.6327C0 27.0727 0.155922 27.5628 0.407111 27.9977L16 18.9955L31.593 9.99317Z" fill="#659AD2"/>
<path d="M15.9999 29.6628C10.1183 29.6628 5.33325 24.8778 5.33325 18.9962C5.33325 13.1146 10.1183 8.32953 15.9999 8.32953C19.7952 8.32953 23.3347 10.3719 25.2371 13.6595L20.6209 16.3308C19.6687 14.6852 17.898 13.6629 15.9999 13.6629C13.0591 13.6629 10.6666 16.0553 10.6666 18.9962C10.6666 21.9369 13.0591 24.3295 15.9999 24.3295C17.8982 24.3295 19.6689 23.3072 20.6212 21.6613L25.2375 24.3324C23.335 27.6204 19.7954 29.6628 15.9999 29.6628Z" fill="white"/>
<path d="M26.6666 18.4036H25.4814V17.2184H24.2963V18.4036H23.1111V19.5887H24.2963V20.774H25.4814V19.5887H26.6666V18.4036Z" fill="white"/>
<path d="M31.1112 18.4036H29.926V17.2184H28.7409V18.4036H27.5557V19.5887H28.7409V20.774H29.926V19.5887H31.1112V18.4036Z" fill="white"/>
</g>
<defs>
<clipPath id="clip0_11_347">
<rect width="32" height="36.009" fill="white" transform="translate(0 0.990967)"/>
</clipPath>
</defs>
</svg>
