<svg width="32" height="32" viewBox="0 0 32 32" fill="none" xmlns="http://www.w3.org/2000/svg">
<path d="M30.1159 0L27.5454 28.7967L15.9906 32L4.46773 28.8012L1.8999 0H30.1159Z" fill="#264DE4"/>
<path d="M16.0078 29.5516L25.3446 26.963L27.5413 2.35498H16.0078V29.5516Z" fill="#2965F1"/>
<path d="M16.0079 13.0369H7.78662L8.10321 16.5692H16.0079V13.0369Z" fill="#EBEBEB"/>
<path d="M16.0078 5.88733H15.9956H7.15039L7.47149 9.41971H16.0078V5.88733Z" fill="#EBEBEB"/>
<path d="M8.26099 18.3354L8.75587 23.8817L15.9916 25.8904L16.0079 25.8859V22.2108L15.9924 22.2149L12.0584 21.1527L11.8069 18.3354H9.89529H8.26099Z" fill="#EBEBEB"/>
<path d="M20.3453 16.5692L19.9353 21.1504L15.9956 22.2137V25.8887L23.2371 23.8817L23.2902 23.2849L24.1203 13.9854L24.2065 13.0369L24.8442 5.88733H15.9956V9.41971H20.973L20.6516 13.0369H15.9956V16.5692H20.3453Z" fill="white"/>
</svg>
