<svg width="32" height="24" viewBox="0 0 32 24" fill="none" xmlns="http://www.w3.org/2000/svg">
<g clip-path="url(#clip0_13_36)">
<path d="M31.3395 8.81215C30.6189 8.31217 28.9676 8.12467 27.6765 8.37466C27.5264 7.12471 26.8358 6.03101 25.6349 5.0623L24.9443 4.56232L24.4639 5.28104C23.8634 6.2185 23.5632 7.53095 23.6533 8.7809C23.6833 9.21838 23.8334 9.9996 24.2838 10.6871C23.8634 10.9371 22.9927 11.2495 21.8518 11.2495H0.144346L0.0842979 11.4995C-0.125871 12.7495 -0.125871 16.6556 2.33611 19.6555C4.19761 21.9366 6.95983 23.0928 10.5928 23.0928C18.4591 23.0928 24.2838 19.3117 27.016 12.4682C28.0969 12.4995 30.4087 12.4682 31.5797 10.1246C31.6097 10.0621 31.6697 9.9371 31.8799 9.46837L32 9.21838L31.3395 8.81215ZM17.4983 0H14.1957V3.12487H17.4983V0ZM17.4983 3.74985H14.1957V6.87472H17.4983V3.74985ZM13.5952 3.74985H10.2925V6.87472H13.5952V3.74985ZM9.69203 3.74985H6.38938V6.87472H9.69203V3.74985ZM5.78889 7.4997H2.48623V10.6246H5.78889V7.4997ZM9.69203 7.4997H6.38938V10.6246H9.69203V7.4997ZM13.5952 7.4997H10.2925V10.6246H13.5952V7.4997ZM17.4983 7.4997H14.1957V10.6246H17.4983V7.4997ZM21.4015 7.4997H18.0988V10.6246H21.4015V7.4997Z" fill="#2396ED"/>
</g>
<defs>
<clipPath id="clip0_13_36">
<rect width="32" height="23.125" fill="white"/>
</clipPath>
</defs>
</svg>
