<svg width="32" height="33" viewBox="0 0 32 33" fill="none" xmlns="http://www.w3.org/2000/svg">
<g clip-path="url(#clip0_11_315)">
<path fill-rule="evenodd" clip-rule="evenodd" d="M17.0168 1.07343C14.692 1.89746 12.4477 4.3026 10.2841 8.28883C7.0386 14.2682 2.8469 22.765 8.61891 29.4923C11.2892 32.6046 15.6982 34.4415 21.4844 31.5323C26.1326 29.1952 27.4254 22.4884 25.7566 19.3368C22.3142 12.8356 18.8217 11.2321 17.8865 7.20029C17.263 4.51245 16.9731 2.47016 17.0168 1.07343Z" fill="url(#paint0_linear_11_315)"/>
<path fill-rule="evenodd" clip-rule="evenodd" d="M17.0168 0.99292C14.6802 1.82545 12.4359 4.23059 10.2841 8.20833C7.05627 14.1749 2.84688 22.6845 8.61889 29.4118C11.2892 32.5241 15.6414 33.5298 18.0564 31.684C19.6308 30.4807 20.7015 29.3336 21.3185 26.9168C22.0054 24.2258 21.4783 20.6028 21.1172 18.9385C20.6602 16.8324 20.5106 14.5209 20.6685 12.0039C20.6129 11.9361 20.5713 11.8854 20.5438 11.8518C19.2865 10.3132 18.3164 8.97301 17.8865 7.11979C17.263 4.43194 16.9731 2.38965 17.0168 0.99292Z" fill="url(#paint1_linear_11_315)"/>
<path fill-rule="evenodd" clip-rule="evenodd" d="M15.0821 2.03979C12.9057 3.75981 11.2875 6.64486 10.2275 10.6949C8.63746 16.7701 8.46516 22.3723 9.02593 25.6309C10.113 31.9478 15.7489 34.3456 21.5296 31.4053C25.0872 29.5958 26.569 25.7118 26.4905 21.4958C26.4092 17.1305 17.9731 12.1831 16.4791 8.53997C15.4831 6.11121 15.0174 3.94448 15.0821 2.03979Z" fill="url(#paint2_linear_11_315)"/>
<path fill-rule="evenodd" clip-rule="evenodd" d="M20.5996 13.4299C23.2098 16.7774 23.7787 19.1077 22.3065 20.4207C20.0981 22.3902 14.6978 23.6753 11.3382 21.2928C9.09847 19.7045 8.25104 16.2972 8.79591 11.0709C7.87135 13.0018 7.08962 14.9578 6.45073 16.9388C5.81184 18.9199 5.62528 20.9931 5.89103 23.1584C6.69171 24.7782 8.63844 25.8601 11.7312 26.4039C16.3704 27.2198 20.7613 26.8166 23.7076 25.3314C25.6718 24.3413 26.6008 23.3556 26.4947 22.3744C26.5656 20.9255 26.1188 19.5462 25.1543 18.2365C24.1898 16.9269 22.6716 15.3247 20.5996 13.4299Z" fill="url(#paint3_linear_11_315)"/>
<path fill-rule="evenodd" clip-rule="evenodd" d="M10.3997 10.0874C10.3779 12.505 10.9995 14.8031 12.2646 16.9819C14.1622 20.2502 16.3772 23.4796 19.6918 26.1564C21.9015 27.941 23.6672 28.5176 24.9888 27.8861C23.9033 29.8288 22.7491 30.7807 21.5261 30.7419C19.6918 30.6837 17.4551 29.882 13.8713 25.5754C11.4822 22.7043 9.84772 19.9885 8.96802 17.4278C9.10752 16.412 9.25545 15.4002 9.4118 14.3924C9.56815 13.3847 9.89746 11.9497 10.3997 10.0874Z" fill="url(#paint4_linear_11_315)"/>
<path fill-rule="evenodd" clip-rule="evenodd" d="M16.0058 13.4052C16.2085 15.3746 16.9749 18.5249 16.0058 20.6225C15.0366 22.72 10.5604 26.5092 11.796 29.8472C13.0316 33.1852 16.0429 32.4358 17.9317 30.8974C19.8206 29.3591 20.8316 26.8578 21.0557 25.0987C21.2798 23.3396 20.5195 19.9548 20.2723 17.0107C20.1074 15.0479 20.2193 13.3651 20.6078 11.9622L20.029 11.2338L16.6223 10.2252C16.0761 11.0322 15.8706 12.0922 16.0058 13.4052Z" fill="url(#paint5_linear_11_315)"/>
<path fill-rule="evenodd" clip-rule="evenodd" d="M17.2216 3.65033C16.119 4.11624 15.0743 5.03943 14.0876 6.41989C12.6075 8.49059 11.8536 9.73185 12.4116 13.8365C12.7836 16.5729 13.0499 19.0904 13.2104 21.3889L17.9819 7.52538C17.8065 6.81898 17.6606 6.181 17.5442 5.61146C17.4279 5.04191 17.3203 4.3882 17.2216 3.65033Z" fill="url(#paint6_linear_11_315)"/>
<path fill-rule="evenodd" clip-rule="evenodd" d="M17.9729 7.4978C16.7616 8.2048 15.823 9.65326 15.1572 11.8432C14.4913 14.0331 13.8821 17.0946 13.3296 21.0276C14.0665 18.526 14.5553 16.7142 14.7961 15.592C15.1572 13.9088 15.2805 11.5284 16.2393 9.91243C16.8786 8.83509 17.4564 8.03021 17.9729 7.4978Z" fill="#330A4C" fill-opacity="0.316321"/>
<path fill-rule="evenodd" clip-rule="evenodd" d="M12.3645 30.9607C14.3578 31.2455 15.4002 31.4987 15.4915 31.7202C15.6284 32.0526 15.2391 32.3566 14.1327 32.1523C13.395 32.0161 12.8056 31.6189 12.3645 30.9607Z" fill="white"/>
<path fill-rule="evenodd" clip-rule="evenodd" d="M13.3657 3.65033C12.2693 4.96012 11.3193 6.34871 10.5156 7.81609C9.71191 9.28347 9.13765 10.3782 8.79282 11.1002C8.68594 11.6388 8.63377 12.4334 8.63632 13.4842C8.63887 14.5349 8.72975 15.7032 8.90897 16.989C9.06588 14.4711 9.54622 12.0269 10.35 9.6567C11.1538 7.28645 12.159 5.28433 13.3657 3.65033Z" fill="#EDEDED" fill-opacity="0.603261"/>
</g>
<defs>
<linearGradient id="paint0_linear_11_315" x1="16.569" y1="3.43186" x2="15.459" y2="32.9675" gradientUnits="userSpaceOnUse">
<stop stop-color="#D9D8DC"/>
<stop offset="1" stop-color="white" stop-opacity="0.385275"/>
</linearGradient>
<linearGradient id="paint1_linear_11_315" x1="17.0708" y1="3.42444" x2="5.47017" y2="28.8507" gradientUnits="userSpaceOnUse">
<stop stop-color="#8D67AF" stop-opacity="0.671932"/>
<stop offset="1" stop-color="#9F8DAF"/>
</linearGradient>
<linearGradient id="paint2_linear_11_315" x1="18.3659" y1="11.6624" x2="18.3659" y2="32.1089" gradientUnits="userSpaceOnUse">
<stop stop-color="#26053D" stop-opacity="0.761634"/>
<stop offset="1" stop-color="#B7B4B4" stop-opacity="0.277683"/>
</linearGradient>
<linearGradient id="paint3_linear_11_315" x1="7.87437" y1="13.0455" x2="13.0798" y2="26.8345" gradientUnits="userSpaceOnUse">
<stop stop-color="#91739F" stop-opacity="0.45955"/>
<stop offset="1" stop-color="#32054F" stop-opacity="0.539912"/>
</linearGradient>
<linearGradient id="paint4_linear_11_315" x1="21.7883" y1="30.0016" x2="7.47378" y2="18.1406" gradientUnits="userSpaceOnUse">
<stop stop-color="#463D49" stop-opacity="0.331182"/>
<stop offset="1" stop-color="#340A50" stop-opacity="0.821388"/>
</linearGradient>
<linearGradient id="paint5_linear_11_315" x1="18.846" y1="11.8556" x2="8.75024" y2="27.214" gradientUnits="userSpaceOnUse">
<stop stop-color="#715383" stop-opacity="0.145239"/>
<stop offset="1" stop-color="#F4F4F4" stop-opacity="0.233639"/>
</linearGradient>
<linearGradient id="paint6_linear_11_315" x1="19.8114" y1="16.5401" x2="12.6617" y2="16.1036" gradientUnits="userSpaceOnUse">
<stop stop-color="#A5A1A8" stop-opacity="0.356091"/>
<stop offset="1" stop-color="#370C50" stop-opacity="0.581975"/>
</linearGradient>
<clipPath id="clip0_11_315">
<rect width="32" height="31.9987" fill="white" transform="translate(0 0.99292)"/>
</clipPath>
</defs>
</svg>
