<svg width="32" height="32" viewBox="0 0 32 32" fill="none" xmlns="http://www.w3.org/2000/svg">
<g clip-path="url(#clip0_11_774)">
<path d="M10.6707 32C12.0852 32 13.4418 31.4381 14.442 30.4379C15.4422 29.4377 16.0041 28.0812 16.0041 26.6667V21.3334H10.6707C9.25625 21.3334 7.89969 21.8953 6.8995 22.8955C5.89931 23.8957 5.3374 25.2522 5.3374 26.6667C5.3374 28.0812 5.89931 29.4377 6.8995 30.4379C7.89969 31.4381 9.25625 32 10.6707 32Z" fill="#0ACF83"/>
<path d="M5.3374 16C5.3374 14.5855 5.89931 13.2289 6.8995 12.2287C7.89969 11.2285 9.25625 10.6666 10.6707 10.6666H16.0041V21.3333H10.6707C9.25625 21.3333 7.89969 20.7714 6.8995 19.7712C5.89931 18.771 5.3374 17.4144 5.3374 16Z" fill="#A259FF"/>
<path d="M5.3374 5.33333C5.3374 3.91957 5.89873 2.56364 6.89803 1.56357C7.89732 0.563495 9.2528 0.0011045 10.6666 0L15.9999 0V10.6667H10.6707C9.25625 10.6667 7.89969 10.1048 6.8995 9.10457C5.89931 8.10438 5.3374 6.74782 5.3374 5.33333Z" fill="#F24E1E"/>
<path d="M16.0042 0H21.3375C22.752 0 24.1085 0.561903 25.1087 1.5621C26.1089 2.56229 26.6708 3.91884 26.6708 5.33333C26.6708 6.74782 26.1089 8.10438 25.1087 9.10457C24.1085 10.1048 22.752 10.6667 21.3375 10.6667H16.0042V0Z" fill="#FF7262"/>
<path d="M26.6708 16C26.6708 17.4144 26.1089 18.771 25.1087 19.7712C24.1085 20.7714 22.752 21.3333 21.3375 21.3333C19.923 21.3333 18.5664 20.7714 17.5662 19.7712C16.5661 18.771 16.0042 17.4144 16.0042 16C16.0042 14.5855 16.5661 13.2289 17.5662 12.2287C18.5664 11.2285 19.923 10.6666 21.3375 10.6666C22.752 10.6666 24.1085 11.2285 25.1087 12.2287C26.1089 13.2289 26.6708 14.5855 26.6708 16Z" fill="#1ABCFE"/>
</g>
<defs>
<clipPath id="clip0_11_774">
<rect width="32" height="32" fill="white"/>
</clipPath>
</defs>
</svg>
