<svg width="32" height="32" viewBox="0 0 32 32" fill="none" xmlns="http://www.w3.org/2000/svg">
<g clip-path="url(#clip0_13_15)">
<path d="M19.6201 11.558L16.4171 14.538L13.4451 8.543L14.9831 5.095C15.3831 4.395 16.0071 4.403 16.3971 5.095L19.6201 11.558Z" fill="#FFA000"/>
<path d="M13.445 8.54297L16.417 14.538L4.44702 25.673L13.445 8.54297Z" fill="#F57F17"/>
<path d="M23.123 7.00298C23.695 6.45298 24.287 6.64098 24.438 7.41998L27.554 25.525L17.226 31.725C16.866 31.925 15.906 32.011 15.906 32.011C15.906 32.011 15.032 31.907 14.699 31.711L4.44702 25.673L23.123 7.00298Z" fill="#FFCA28"/>
<path d="M13.445 8.54298L4.448 25.673L8.455 0.63798C8.603 -0.14202 9.047 -0.21702 9.443 0.47098L13.445 8.54298Z" fill="#FFA000"/>
</g>
<defs>
<clipPath id="clip0_13_15">
<rect width="32" height="32" fill="white"/>
</clipPath>
</defs>
</svg>
