<svg width="32" height="32" viewBox="0 0 32 32" fill="none" xmlns="http://www.w3.org/2000/svg">
<g clip-path="url(#clip0_11_872)">
<path d="M31.396 14.575L17.425 0.603964C17.2337 0.412568 17.0066 0.260738 16.7566 0.15715C16.5066 0.0535614 16.2386 0.000244141 15.968 0.000244141C15.6974 0.000244141 15.4294 0.0535614 15.1794 0.15715C14.9294 0.260738 14.7023 0.412568 14.511 0.603964L11.611 3.50396L15.291 7.18396C16.147 6.88396 17.127 7.08896 17.809 7.77096C18.1336 8.0962 18.3603 8.50618 18.463 8.95408C18.5658 9.40199 18.5405 9.86976 18.39 10.304L21.937 13.851C22.795 13.555 23.785 13.746 24.47 14.433C24.6977 14.6607 24.8783 14.9311 25.0015 15.2287C25.1248 15.5263 25.1881 15.8452 25.1881 16.1673C25.1881 16.4894 25.1246 16.8083 25.0013 17.1059C24.878 17.4034 24.6973 17.6738 24.4695 17.9015C24.2417 18.1292 23.9713 18.3098 23.6737 18.433C23.3762 18.5562 23.0572 18.6196 22.7351 18.6196C22.4131 18.6195 22.0941 18.556 21.7966 18.4327C21.4991 18.3094 21.2287 18.1287 21.001 17.901C20.281 17.181 20.103 16.121 20.467 15.234L17.159 11.926V20.631C17.3991 20.7498 17.6186 20.9065 17.809 21.095C18.0367 21.3227 18.2173 21.593 18.3406 21.8905C18.4638 22.188 18.5272 22.5069 18.5272 22.829C18.5272 23.151 18.4638 23.4699 18.3406 23.7674C18.2173 24.0649 18.0367 24.3353 17.809 24.563C17.5813 24.7907 17.311 24.9713 17.0134 25.0945C16.7159 25.2178 16.397 25.2812 16.075 25.2812C15.753 25.2812 15.4341 25.2178 15.1366 25.0945C14.839 24.9713 14.5687 24.7907 14.341 24.563C14.113 24.3354 13.9322 24.0651 13.8087 23.7676C13.6853 23.47 13.6218 23.1511 13.6218 22.829C13.6218 22.5068 13.6853 22.1879 13.8087 21.8904C13.9322 21.5928 14.113 21.3225 14.341 21.095C14.578 20.859 14.841 20.68 15.144 20.56V11.774C14.852 11.654 14.578 11.477 14.341 11.239C13.9967 10.8951 13.7626 10.4564 13.6685 9.97891C13.5745 9.50142 13.6248 9.00675 13.813 8.55796L10.183 4.92996L0.603 14.5C0.411453 14.6913 0.259497 14.9185 0.15582 15.1686C0.0521434 15.4187 -0.0012207 15.6867 -0.0012207 15.9575C-0.0012207 16.2282 0.0521434 16.4963 0.15582 16.7464C0.259497 16.9964 0.411453 17.2236 0.603 17.415L14.575 31.385C14.7663 31.5764 14.9934 31.7282 15.2434 31.8318C15.4934 31.9354 15.7614 31.9887 16.032 31.9887C16.3026 31.9887 16.5706 31.9354 16.8206 31.8318C17.0706 31.7282 17.2977 31.5764 17.489 31.385L31.396 17.5C31.5875 17.3086 31.7395 17.0814 31.8432 16.8314C31.9469 16.5813 32.0002 16.3132 32.0002 16.0425C32.0002 15.7717 31.9469 15.5037 31.8432 15.2536C31.7395 15.0035 31.5875 14.7763 31.396 14.585" fill="#F03C2E"/>
</g>
<defs>
<clipPath id="clip0_11_872">
<rect width="32" height="32" fill="white"/>
</clipPath>
</defs>
</svg>
