<svg width="32" height="32" viewBox="0 0 32 32" fill="none" xmlns="http://www.w3.org/2000/svg">
<g clip-path="url(#clip0_11_761)">
<path d="M4.46009 28.802L1.89209 0.000976562H30.1081L27.5381 28.798L15.9821 32L4.46009 28.802Z" fill="#E44D26"/>
<path d="M25.337 26.964L27.534 2.35596H16V29.553L25.337 26.964Z" fill="#F16529"/>
<path d="M15.9881 5.88794H7.14209L8.09509 16.5699H16.0001V13.0379H11.3261L11.0031 9.42094H16.0001V5.88794H15.9881ZM16.0001 22.1999L15.9851 22.2039L12.0511 21.1419L11.8011 18.3249H8.25309L8.74809 23.8709L15.9841 25.8709L16.0001 25.8659V22.1999Z" fill="#EBEBEB"/>
<path d="M15.9881 16.5699H20.3381L19.9381 21.1499L15.9981 22.2129V25.8879L23.2401 23.8809L24.2101 13.0359H16.0001L15.9881 16.5699ZM24.7521 6.83594L24.8361 5.88794H15.9861V9.41994H24.5181L24.5881 8.62594L24.7521 6.83594Z" fill="white"/>
</g>
<defs>
<clipPath id="clip0_11_761">
<rect width="32" height="32" fill="white"/>
</clipPath>
</defs>
</svg>
