<svg width="32" height="33" viewBox="0 0 32 33" fill="none" xmlns="http://www.w3.org/2000/svg">
<g clip-path="url(#clip0_11_206)">
<path d="M0 0.998718H32V32.9974H0V0.998718Z" fill="#F7DF1E"/>
<path d="M8.41394 27.7402L10.8627 26.2582C11.3352 27.0958 11.7649 27.8046 12.7958 27.8046C13.7839 27.8046 14.4071 27.4181 14.4071 25.9146V15.6898H17.4142V25.9571C17.4142 29.0717 15.5884 30.4894 12.9247 30.4894C10.5191 30.4894 9.12269 29.2436 8.41382 27.7399L8.41394 27.7402ZM19.0476 27.4179L21.4961 26.0003C22.1407 27.0529 22.9784 27.8262 24.4604 27.8262C25.7066 27.8262 26.5011 27.2032 26.5011 26.3439C26.5011 25.3129 25.6848 24.9477 24.3101 24.3464L23.5584 24.0239C21.3888 23.1006 19.9497 21.9406 19.9497 19.4918C19.9497 17.2363 21.6681 15.5178 24.3532 15.5178C26.2649 15.5178 27.6397 16.1838 28.6277 17.9237L26.2862 19.4274C25.7706 18.5038 25.2123 18.1387 24.3531 18.1387C23.4723 18.1387 22.9138 18.6972 22.9138 19.4274C22.9138 20.3296 23.4723 20.6949 24.7611 21.2534L25.5128 21.5756C28.0691 22.6712 29.5082 23.7881 29.5082 26.3011C29.5082 29.0078 27.3817 30.4898 24.5248 30.4898C21.7324 30.4898 19.9281 29.1581 19.0474 27.4181" fill="black"/>
</g>
<defs>
<clipPath id="clip0_11_206">
<rect width="32" height="31.9987" fill="white" transform="translate(0 0.998718)"/>
</clipPath>
</defs>
</svg>
