<svg width="32" height="34" viewBox="0 0 32 34" fill="none" xmlns="http://www.w3.org/2000/svg">
<g clip-path="url(#clip0_11_664)">
<path fill-rule="evenodd" clip-rule="evenodd" d="M31.7606 7.82019C31.7724 7.86387 31.7784 7.9089 31.7786 7.95415V14.9866C31.7786 15.0769 31.7548 15.1656 31.7096 15.2437C31.6644 15.3218 31.5995 15.3866 31.5213 15.4315L25.6275 18.8298V25.5655C25.6275 25.7488 25.5302 25.918 25.3715 26.0103L13.0688 33.1031C13.0406 33.1191 13.0099 33.1294 12.9792 33.1403C12.9677 33.1441 12.9568 33.1512 12.9446 33.1544C12.8586 33.1771 12.7682 33.1771 12.6822 33.1544C12.6682 33.1505 12.6554 33.1428 12.6419 33.1377C12.6138 33.1275 12.5843 33.1185 12.5574 33.1031L0.25728 26.0103C0.179141 25.9654 0.114215 25.9006 0.0690461 25.8225C0.0238774 25.7444 6.19132e-05 25.6558 0 25.5655L0 4.46802C0 4.42187 0.0064 4.377 0.01792 4.33342C0.02176 4.31868 0.03072 4.30522 0.03584 4.29048C0.04544 4.26356 0.0544 4.236 0.06848 4.211C0.07808 4.19433 0.09216 4.18087 0.10368 4.16549C0.1184 4.14498 0.13184 4.12383 0.14912 4.10588C0.16384 4.09114 0.18304 4.08024 0.19968 4.06743C0.21824 4.05204 0.23488 4.03538 0.256 4.0232H0.25664L6.40704 0.476824C6.48492 0.431945 6.57319 0.408325 6.66304 0.408325C6.75289 0.408325 6.84116 0.431945 6.91904 0.476824L13.0694 4.0232H13.0707C13.0912 4.03602 13.1085 4.05204 13.127 4.06678C13.1437 4.0796 13.1622 4.09114 13.177 4.10524C13.1949 4.12383 13.2077 4.14498 13.223 4.16549C13.2339 4.18087 13.2486 4.19433 13.2576 4.211C13.2723 4.23664 13.2806 4.26356 13.2909 4.29048C13.296 4.30522 13.305 4.31868 13.3088 4.33406C13.3206 4.37774 13.3266 4.42277 13.3267 4.46802V17.6453L18.4518 14.6899V7.95351C18.4518 7.90864 18.4582 7.86313 18.4698 7.82019C18.4742 7.8048 18.4826 7.79134 18.4877 7.7766C18.4979 7.74968 18.5069 7.72212 18.521 7.69712C18.5306 7.68046 18.5446 7.667 18.5555 7.65162C18.5709 7.63111 18.5837 7.60996 18.6016 7.59201C18.6163 7.57727 18.6349 7.56637 18.6515 7.55355C18.6707 7.53817 18.6874 7.5215 18.7078 7.50933H18.7085L24.8595 3.96295C24.9374 3.91801 25.0257 3.89435 25.1155 3.89435C25.2054 3.89435 25.2937 3.91801 25.3715 3.96295L31.5219 7.50933C31.5437 7.52215 31.5603 7.53817 31.5795 7.55291C31.5955 7.56573 31.6141 7.57727 31.6288 7.59137C31.6467 7.60996 31.6595 7.63111 31.6749 7.65162C31.6864 7.667 31.7005 7.68046 31.7094 7.69712C31.7242 7.72212 31.7325 7.74968 31.7427 7.7766C31.7485 7.79134 31.7568 7.8048 31.7606 7.82019ZM30.7533 14.6899V8.84186L28.601 10.0827L25.6275 11.7973V17.6453L30.7539 14.6899H30.7533ZM24.6029 25.2688V19.4169L21.6781 21.0898L13.3261 25.8636V31.7706L24.6029 25.2688ZM1.02528 5.35573V25.2688L12.3008 31.7699V25.8642L6.41024 22.5255L6.40832 22.5242L6.40576 22.5229C6.38592 22.5114 6.36928 22.4947 6.35072 22.4806C6.33472 22.4678 6.31616 22.4576 6.30208 22.4435L6.3008 22.4415C6.28416 22.4255 6.27264 22.4056 6.25856 22.3877C6.24576 22.3704 6.2304 22.3556 6.22016 22.3377L6.21952 22.3358C6.208 22.3165 6.20096 22.2935 6.19264 22.2717C6.18432 22.2525 6.17344 22.2345 6.16832 22.214V22.2134C6.16192 22.189 6.16064 22.1634 6.15808 22.1384C6.15552 22.1191 6.1504 22.0999 6.1504 22.0807V22.0794V8.31115L3.1776 6.59597L1.02528 5.35638V5.35573ZM6.66368 1.51388L1.5392 4.46802L6.6624 7.42216L11.7862 4.46738L6.6624 1.51388H6.66368ZM9.32864 19.9502L12.3014 18.2363V5.35573L10.1491 6.59661L7.17568 8.31115V21.1917L9.32864 19.9502ZM25.1155 5.00001L19.9917 7.95415L25.1155 10.9083L30.2387 7.95351L25.1155 5.00001ZM24.6029 11.7973L21.6294 10.0827L19.4771 8.84186V14.6899L22.4499 16.4038L24.6029 17.6453V11.7973ZM12.8128 24.9759L20.3283 20.6789L24.0851 18.5317L18.9651 15.5795L13.0701 18.9785L7.69728 22.0762L12.8128 24.9759Z" fill="#FF2D20"/>
</g>
<defs>
<clipPath id="clip0_11_664">
<rect width="32" height="33.3294" fill="white" transform="translate(0 0.408203)"/>
</clipPath>
</defs>
</svg>
