<svg width="32" height="33" viewBox="0 0 32 33" fill="none" xmlns="http://www.w3.org/2000/svg">
<g clip-path="url(#clip0_11_655)">
<path d="M14.9521 0.269855C14.8833 0.276119 14.6643 0.298045 14.4673 0.313706C9.92219 0.724029 5.66491 3.1797 2.96852 6.95405C1.46706 9.05265 0.506745 11.4331 0.143891 13.9546C0.0156403 14.8348 0 15.0947 0 16.2881C0 17.4815 0.0156403 17.7415 0.143891 18.6216C1.01349 24.6387 5.28954 29.6941 11.089 31.5672C12.1275 31.9023 13.2223 32.131 14.4673 32.2688C14.9521 32.322 17.0479 32.322 17.5327 32.2688C19.6817 32.0307 21.5022 31.4983 23.2978 30.5805C23.573 30.4396 23.6262 30.402 23.5887 30.3707C23.5636 30.3519 22.3906 28.7763 20.983 26.8719L18.4242 23.4108L15.218 18.6592C13.4538 16.0469 12.0023 13.9107 11.9898 13.9107C11.9773 13.9076 11.9648 16.0187 11.9586 18.5966C11.9492 23.1101 11.946 23.2918 11.8897 23.3983C11.8084 23.5518 11.7458 23.6144 11.6145 23.6833C11.5144 23.7334 11.4268 23.7428 10.9544 23.7428H10.4133L10.2694 23.652C10.1756 23.5925 10.1067 23.5142 10.0598 23.4233L9.99413 23.2824L10.0004 17.0023L10.0098 10.719L10.1067 10.5968C10.1568 10.5311 10.2631 10.4465 10.3382 10.4058C10.4665 10.3431 10.5165 10.3369 11.0577 10.3369C11.6958 10.3369 11.8022 10.3619 11.9679 10.5436C12.0149 10.5937 13.7509 13.2123 15.828 16.3664C17.905 19.5206 20.7453 23.8274 22.1404 25.9417L24.6741 29.7849L24.8023 29.7004C25.9378 28.9611 27.139 27.9087 28.0899 26.8124C30.1138 24.4852 31.4182 21.6474 31.8561 18.6216C31.9844 17.7415 32 17.4815 32 16.2881C32 15.0947 31.9844 14.8348 31.8561 13.9546C30.9865 7.93757 26.7105 2.88214 20.911 1.00906C19.8882 0.677045 18.7996 0.448392 17.5797 0.310574C17.2794 0.279251 15.2117 0.244797 14.9521 0.269855ZM21.5022 9.961C21.6524 10.0362 21.7744 10.1803 21.8182 10.3306C21.8432 10.412 21.8495 12.1536 21.8432 16.0783L21.8338 21.71L20.8422 20.1877L19.8475 18.6655V14.5716C19.8475 11.9249 19.86 10.4371 19.8788 10.3651C19.9288 10.1896 20.0383 10.0518 20.1885 9.97039C20.3167 9.90462 20.3636 9.89835 20.8547 9.89835C21.3177 9.89835 21.399 9.90462 21.5022 9.961Z" fill="black"/>
</g>
<defs>
<clipPath id="clip0_11_655">
<rect width="32" height="32.0475" fill="white" transform="translate(0 0.26123)"/>
</clipPath>
</defs>
</svg>
