<svg width="32" height="33" viewBox="0 0 32 33" fill="none" xmlns="http://www.w3.org/2000/svg">
<g clip-path="url(#clip0_11_214)">
<path d="M0 16.6934C0 21.2781 7.16355 24.9949 15.9999 24.9949C24.8362 24.9949 31.9998 21.2781 31.9998 16.6934C31.9998 12.1086 24.8362 8.39179 15.9999 8.39179C7.16355 8.39179 0 12.1087 0 16.6934Z" fill="url(#paint0_radial_11_214)"/>
<path d="M15.9999 24.3785C24.4912 24.3785 31.3748 20.9378 31.3748 16.6934C31.3748 12.449 24.4912 9.00824 15.9999 9.00824C7.50864 9.00824 0.625 12.449 0.625 16.6934C0.625 20.9378 7.50864 24.3785 15.9999 24.3785Z" fill="#777BB3"/>
<path d="M8.69294 17.6462C9.39114 17.6462 9.91238 17.5191 10.2421 17.2689C10.5684 17.0211 10.7937 16.5918 10.9118 15.993C11.022 15.4333 10.98 15.0424 10.7872 14.8315C10.59 14.6161 10.1638 14.5069 9.52025 14.5069H8.40452L7.78589 17.6462H8.69288L8.69294 17.6462ZM5.04343 21.5133C4.99163 21.5133 4.94244 21.4904 4.90952 21.4509C4.89323 21.4314 4.88152 21.4086 4.87522 21.3842C4.86891 21.3597 4.86818 21.3342 4.87306 21.3094L6.5124 12.9901C6.52009 12.9511 6.54131 12.9159 6.5724 12.8907C6.60349 12.8654 6.64253 12.8516 6.68283 12.8516H10.216C11.3264 12.8516 12.1529 13.1484 12.6724 13.7356C13.1947 14.3252 13.356 15.1495 13.1518 16.1854C13.0687 16.6074 12.9257 16.9993 12.727 17.3504C12.5279 17.7017 12.265 18.0268 11.9452 18.3167C11.5623 18.6701 11.129 18.9264 10.6584 19.0772C10.1952 19.226 9.60052 19.3016 8.89057 19.3016H7.4599L7.05134 21.3748C7.04366 21.4138 7.02246 21.449 6.99138 21.4742C6.96029 21.4995 6.92126 21.5134 6.88097 21.5134H5.04343V21.5133Z" fill="black"/>
<path d="M8.5476 14.6781H9.52028C10.2969 14.6781 10.5667 14.8462 10.6584 14.9463C10.8105 15.1127 10.8392 15.4634 10.7415 15.9605C10.6316 16.517 10.428 16.9116 10.1362 17.1331C9.83752 17.36 9.35188 17.4749 8.69297 17.4749H7.99645L8.54754 14.6781H8.5476ZM10.216 12.6803H6.6828C6.60221 12.6803 6.52414 12.708 6.46197 12.7585C6.39979 12.8091 6.35738 12.8794 6.342 12.9574L4.70266 21.2768C4.6929 21.3264 4.69437 21.3775 4.70698 21.4264C4.71959 21.4754 4.74301 21.521 4.77558 21.5599C4.80815 21.5989 4.84906 21.6303 4.89537 21.6518C4.94168 21.6734 4.99225 21.6846 5.04346 21.6846H6.88083C6.96142 21.6846 7.0395 21.6569 7.10169 21.6064C7.16388 21.5558 7.2063 21.4855 7.22168 21.4075L7.60293 19.4728H8.89054C9.61866 19.4728 10.2316 19.3944 10.7123 19.24C11.2065 19.0817 11.6614 18.8131 12.0638 18.4419C12.3966 18.1398 12.6714 17.8007 12.8786 17.434C13.0858 17.0673 13.2356 16.6581 13.3223 16.2181C13.5373 15.1277 13.3627 14.2545 12.8032 13.623C12.2493 12.9975 11.3788 12.6804 10.2161 12.6804L10.216 12.6803ZM7.57533 17.8175H8.69297C9.4337 17.8175 9.98555 17.6799 10.3481 17.4046C10.7105 17.1292 10.9552 16.6697 11.0823 16.0257C11.2038 15.4074 11.1485 14.9711 10.9162 14.7169C10.6839 14.4627 10.2183 14.3356 9.52039 14.3356H8.26149L7.57538 17.8174L7.57533 17.8175ZM10.2162 13.0228C11.2791 13.0228 12.0545 13.2979 12.5418 13.8481C13.0292 14.3984 13.1759 15.1665 12.9815 16.1527C12.9014 16.5589 12.7661 16.9303 12.5755 17.2669C12.385 17.6034 12.1356 17.9115 11.8277 18.1907C11.4608 18.5293 11.0533 18.7706 10.6048 18.9144C10.1563 19.0585 9.58509 19.1303 8.89065 19.1303H7.31682L6.88106 21.3421H5.04369L6.6828 13.0228H10.216" fill="white"/>
<path d="M17.3647 19.3015C17.3128 19.3015 17.2637 19.2786 17.2307 19.2391C17.1978 19.1996 17.1843 19.1478 17.1943 19.0976L17.9194 15.4165C17.9884 15.0665 17.9714 14.8152 17.8715 14.7091C17.8104 14.6442 17.6269 14.5353 17.0841 14.5353H15.7703L14.8586 19.1628C14.8509 19.2018 14.8297 19.237 14.7986 19.2623C14.7675 19.2876 14.7285 19.3014 14.6882 19.3014H12.8653C12.8397 19.3014 12.8144 19.2958 12.7912 19.285C12.7681 19.2743 12.7476 19.2586 12.7313 19.2391C12.715 19.2196 12.7033 19.1968 12.697 19.1723C12.6907 19.1479 12.69 19.1223 12.6948 19.0975L14.3342 10.7782C14.3419 10.7392 14.3631 10.7041 14.3942 10.6788C14.4253 10.6535 14.4643 10.6397 14.5046 10.6397H16.3275C16.3531 10.6397 16.3784 10.6453 16.4016 10.6561C16.4247 10.6668 16.4452 10.6825 16.4615 10.702C16.4778 10.7215 16.4895 10.7443 16.4958 10.7688C16.5021 10.7933 16.5028 10.8188 16.4979 10.8436L16.1023 12.8515H17.5156C18.5923 12.8515 19.3223 13.0387 19.7477 13.4239C20.1817 13.8168 20.3164 14.4451 20.1497 15.2915L19.387 19.1629C19.3793 19.2019 19.3581 19.2371 19.327 19.2624C19.2959 19.2877 19.2569 19.3015 19.2166 19.3015H17.3647L17.3647 19.3015Z" fill="black"/>
<path d="M16.3275 10.4685H14.5046C14.424 10.4685 14.346 10.4961 14.2838 10.5467C14.2216 10.5973 14.1792 10.6676 14.1638 10.7456L12.5244 19.0649C12.5147 19.1145 12.5161 19.1656 12.5288 19.2145C12.5414 19.2635 12.5648 19.3091 12.5974 19.348C12.63 19.387 12.6709 19.4184 12.7172 19.4399C12.7635 19.4615 12.8141 19.4727 12.8653 19.4727H14.6882C14.7688 19.4727 14.8469 19.445 14.9091 19.3945C14.9713 19.3439 15.0137 19.2736 15.029 19.1955L15.9135 14.7066H17.0842C17.626 14.7066 17.7397 14.8207 17.7443 14.8256C17.7772 14.8604 17.8204 15.022 17.7491 15.3839L17.0239 19.0649C17.0142 19.1145 17.0157 19.1656 17.0283 19.2145C17.0409 19.2635 17.0643 19.3091 17.0969 19.348C17.1295 19.387 17.1704 19.4184 17.2167 19.4399C17.263 19.4615 17.3136 19.4727 17.3648 19.4727H19.2166C19.2972 19.4727 19.3753 19.445 19.4375 19.3945C19.4997 19.3439 19.5421 19.2736 19.5575 19.1955L20.3202 15.3242C20.4992 14.4155 20.3461 13.7337 19.8654 13.2979C19.4066 12.8823 18.6381 12.6803 17.5158 12.6803H16.3131L16.6686 10.8763C16.6783 10.8267 16.6769 10.7756 16.6643 10.7266C16.6517 10.6777 16.6282 10.6321 16.5956 10.5931C16.5631 10.5541 16.5222 10.5227 16.4758 10.5012C16.4295 10.4796 16.3789 10.4684 16.3277 10.4684L16.3275 10.4685ZM16.3277 10.8109L15.8919 13.0227H17.5159C18.5377 13.0227 19.2425 13.1986 19.6305 13.55C20.0184 13.9014 20.1345 14.4713 19.9795 15.2589L19.2168 19.1302H17.365L18.0901 15.4493C18.1726 15.0305 18.1423 14.7449 17.999 14.5926C17.8557 14.4403 17.5507 14.3641 17.0844 14.3641H15.6273L14.6883 19.1302H12.8654L14.5047 10.8109H16.3277" fill="white"/>
<path d="M23.0339 17.6462C23.7321 17.6462 24.2534 17.5191 24.5831 17.2689C24.9094 17.0211 25.1347 16.5919 25.2529 15.993C25.363 15.4333 25.3211 15.0424 25.1282 14.8315C24.931 14.6161 24.5048 14.5069 23.8612 14.5069H22.7455L22.1269 17.6462H23.0339L23.0339 17.6462ZM19.3845 21.5133C19.3327 21.5133 19.2836 21.4904 19.2506 21.4509C19.2343 21.4314 19.2226 21.4087 19.2163 21.3842C19.21 21.3597 19.2092 21.3342 19.2141 21.3094L20.8535 12.9901C20.8611 12.9511 20.8824 12.9159 20.9135 12.8906C20.9446 12.8654 20.9836 12.8516 21.0239 12.8516H24.5571C25.6676 12.8516 26.494 13.1484 27.0135 13.7356C27.5358 14.3252 27.697 15.1494 27.4929 16.1854C27.4097 16.6074 27.2668 16.9993 27.068 17.3504C26.8689 17.7017 26.606 18.0268 26.2862 18.3167C25.9033 18.6701 25.47 18.9264 24.9994 19.0772C24.5362 19.226 23.9415 19.3016 23.2316 19.3016H21.8007L21.3923 21.3748C21.3847 21.4138 21.3634 21.449 21.3323 21.4743C21.3012 21.4996 21.2622 21.5134 21.2219 21.5134H19.3845L19.3845 21.5133Z" fill="black"/>
<path d="M22.8886 14.6781H23.8613C24.6379 14.6781 24.9077 14.8462 24.9994 14.9463C25.1516 15.1127 25.1803 15.4634 25.0825 15.9604C24.9726 16.5169 24.769 16.9116 24.4772 17.1331C24.1785 17.36 23.6929 17.4749 23.034 17.4749H22.3376L22.8887 14.6781H22.8886ZM24.557 12.6803H21.0238C20.9432 12.6803 20.8651 12.708 20.803 12.7585C20.7408 12.8091 20.6984 12.8794 20.683 12.9574L19.0437 21.2768C19.034 21.3264 19.0354 21.3775 19.048 21.4264C19.0607 21.4754 19.0841 21.521 19.1166 21.5599C19.1492 21.5989 19.1901 21.6303 19.2364 21.6518C19.2827 21.6734 19.3333 21.6846 19.3845 21.6846H21.2219C21.3025 21.6846 21.3806 21.6569 21.4428 21.6064C21.5049 21.5558 21.5474 21.4855 21.5627 21.4075L21.9439 19.4728H23.2315C23.9597 19.4728 24.5726 19.3944 25.0533 19.24C25.5475 19.0817 26.0024 18.8131 26.4049 18.4417C26.7378 18.1398 27.0118 17.8007 27.2196 17.434C27.4273 17.0673 27.5766 16.6581 27.6633 16.2181C27.8783 15.1276 27.7037 14.2544 27.1442 13.6229C26.5903 12.9975 25.7199 12.6804 24.5571 12.6804L24.557 12.6803ZM21.9164 17.8175H23.034C23.7747 17.8175 24.3266 17.6799 24.6891 17.4046C25.0516 17.1292 25.2962 16.6697 25.4233 16.0257C25.545 15.4074 25.4896 14.9711 25.2572 14.7169C25.0249 14.4627 24.5593 14.3356 23.8614 14.3356H22.6025L21.9164 17.8174L21.9164 17.8175ZM24.5572 13.0228C25.6201 13.0228 26.3955 13.2979 26.8828 13.8481C27.3702 14.3984 27.5169 15.1665 27.3225 16.1527C27.2424 16.5589 27.1071 16.9303 26.9165 17.2669C26.726 17.6034 26.4766 17.9115 26.1687 18.1907C25.8018 18.5293 25.3943 18.7706 24.9458 18.9144C24.4973 19.0585 23.9261 19.1303 23.2317 19.1303H21.6578L21.2221 21.3421H19.3847L21.024 13.0228H24.5572" fill="white"/>
</g>
<defs>
<radialGradient id="paint0_radial_11_214" cx="0" cy="0" r="1" gradientUnits="userSpaceOnUse" gradientTransform="translate(9.60642 11.3104) scale(21.0102 20.723)">
<stop stop-color="#AEB2D5"/>
<stop offset="0.3" stop-color="#AEB2D5"/>
<stop offset="0.75" stop-color="#484C89"/>
<stop offset="1" stop-color="#484C89"/>
</radialGradient>
<clipPath id="clip0_11_214">
<rect width="32" height="31.9987" fill="white" transform="translate(0 0.994873)"/>
</clipPath>
</defs>
</svg>
