<svg width="32" height="33" viewBox="0 0 32 33" fill="none" xmlns="http://www.w3.org/2000/svg">
<g clip-path="url(#clip0_11_648)">
<path d="M16.0001 19.049C17.5783 19.049 18.8576 17.7678 18.8576 16.1873C18.8576 14.6068 17.5783 13.3255 16.0001 13.3255C14.4219 13.3255 13.1426 14.6068 13.1426 16.1873C13.1426 17.7678 14.4219 19.049 16.0001 19.049Z" fill="#00D8FF"/>
<path fill-rule="evenodd" clip-rule="evenodd" d="M16.0002 10.3687C19.8368 10.3687 23.4009 10.92 26.0882 11.8466C29.3261 12.9629 31.3168 14.655 31.3168 16.1873C31.3168 17.7839 29.207 19.5816 25.73 20.7353C23.1013 21.6075 19.6421 22.0628 16.0002 22.0628C12.2663 22.0628 8.73041 21.6355 6.07209 20.7257C2.70883 19.5744 0.683105 17.7535 0.683105 16.1873C0.683105 14.6675 2.58386 12.9884 5.77618 11.8738C8.47352 10.932 12.1256 10.3687 15.9997 10.3687H16.0002Z" stroke="#00D8FF" stroke-width="2.73408"/>
<path fill-rule="evenodd" clip-rule="evenodd" d="M10.9426 13.2948C12.8593 9.96633 15.1166 7.1497 17.2606 5.28115C19.8437 3.02983 22.3019 2.14815 23.6272 2.91352C25.0084 3.71117 25.5093 6.43967 24.7702 10.0324C24.212 12.7488 22.8772 15.9772 21.0578 19.1368C19.1924 22.3762 17.0564 25.2303 14.9416 27.0815C12.2656 29.4242 9.67851 30.272 8.32372 29.4895C7.00908 28.7308 6.50636 26.2425 7.13702 22.9161C7.66988 20.1055 9.00713 16.6557 10.9419 13.2947L10.9426 13.2948Z" stroke="#00D8FF" stroke-width="2.73408"/>
<path fill-rule="evenodd" clip-rule="evenodd" d="M10.9474 19.1452C9.0253 15.8205 7.71664 12.4546 7.17039 9.66126C6.51285 6.29563 6.97775 3.72236 8.30185 2.95476C9.68164 2.15477 12.2922 3.08277 15.0311 5.51835C17.1019 7.35974 19.2284 10.1297 21.0531 13.2863C22.9239 16.5226 24.326 19.8013 24.8715 22.5607C25.5616 26.0526 25.003 28.7206 23.6495 29.5053C22.3362 30.2667 19.9329 29.4606 17.3702 27.252C15.205 25.3861 12.8885 22.5029 10.9474 19.1451V19.1452Z" stroke="#00D8FF" stroke-width="2.73408"/>
</g>
<defs>
<clipPath id="clip0_11_648">
<rect width="32" height="32.0475" fill="white" transform="translate(0 0.190002)"/>
</clipPath>
</defs>
</svg>
