<svg width="32" height="29" viewBox="0 0 32 29" fill="none" xmlns="http://www.w3.org/2000/svg">
<g clip-path="url(#clip0_11_666)">
<path d="M15.9999 17.5998C17.5751 17.5998 18.8521 16.3209 18.8521 14.7434C18.8521 13.1658 17.5751 11.887 15.9999 11.887C14.4247 11.887 13.1477 13.1658 13.1477 14.7434C13.1477 16.3209 14.4247 17.5998 15.9999 17.5998Z" fill="#61DAFB"/>
<path d="M15.9999 20.5955C24.4523 20.5955 31.3043 17.9754 31.3043 14.7434C31.3043 11.5113 24.4523 8.89124 15.9999 8.89124C7.54755 8.89124 0.695557 11.5113 0.695557 14.7434C0.695557 17.9754 7.54755 20.5955 15.9999 20.5955Z" stroke="#61DAFB"/>
<path d="M10.9349 17.6797C15.1569 25.0129 20.8445 29.6463 23.6385 28.0287C26.4324 26.4111 25.2748 19.155 21.0528 11.8217C16.8308 4.48847 11.1432 -0.144951 8.34927 1.47268C5.5553 3.09031 6.71295 10.3464 10.9349 17.6797Z" stroke="#61DAFB"/>
<path d="M10.9393 11.8173C6.71309 19.1482 5.55281 26.401 8.3477 28.017C11.1426 29.6331 16.8343 25.0003 21.0605 17.6695C25.2867 10.3387 26.4469 3.08583 23.652 1.4698C20.8572 -0.146229 15.1655 4.48653 10.9393 11.8173Z" stroke="#61DAFB"/>
</g>
<defs>
<clipPath id="clip0_11_666">
<rect width="32" height="28.5132" fill="white" transform="translate(0 0.486816)"/>
</clipPath>
</defs>
</svg>
