<svg width="32" height="33" viewBox="0 0 32 33" fill="none" xmlns="http://www.w3.org/2000/svg">
<g clip-path="url(#clip0_11_240)">
<path d="M0 16.9961V32.9955H32.001V0.995789H0V16.9961ZM25.7885 15.7212C26.601 15.9242 27.221 16.2852 27.79 16.8742C28.085 17.1891 28.5215 17.7631 28.557 17.9001C28.567 17.9401 27.1755 18.8751 26.332 19.3985C26.302 19.4185 26.1795 19.2871 26.042 19.0836C25.6305 18.4836 25.199 18.2251 24.5385 18.1796C23.5685 18.1136 22.9385 18.6216 22.9485 19.4695C22.9485 19.7185 22.9835 19.8655 23.0855 20.0695C23.299 20.5115 23.6955 20.7755 24.9395 21.3145C27.2305 22.2994 28.2105 22.9494 28.8195 23.8744C29.4995 24.9053 29.6525 26.5513 29.1905 27.7752C28.6825 29.1062 27.423 30.0101 25.6505 30.3101C25.102 30.4066 23.8015 30.3916 23.2125 30.2851C21.9275 30.0566 20.7085 29.4216 19.9565 28.5887C19.6615 28.2637 19.088 27.4152 19.1235 27.3537C19.1385 27.3337 19.271 27.2522 19.4185 27.1657L20.607 26.4808L21.527 25.9473L21.72 26.2323C21.989 26.6438 22.5785 27.2072 22.934 27.3952C23.955 27.9337 25.357 27.8572 26.0475 27.2377C26.3425 26.9687 26.464 26.6893 26.464 26.2778C26.464 25.9068 26.419 25.7443 26.2255 25.4653C25.9765 25.1103 25.4685 24.8103 24.0255 24.1854C22.3745 23.4744 21.6635 23.0324 21.0135 22.3314C20.6375 21.9249 20.282 21.275 20.1345 20.7315C20.0125 20.2795 19.982 19.1466 20.0785 18.6896C20.4185 17.0896 21.6225 15.9822 23.36 15.6522C23.924 15.5457 25.235 15.5862 25.788 15.7232L25.7885 15.7212ZM18.276 17.0561L18.286 18.3661H14.121V30.2006H11.175V18.3661H7.01V17.0811L7.045 15.7612C7.06 15.7412 9.595 15.7312 12.668 15.7362L18.2605 15.7512L18.276 17.0561Z" fill="#007ACC"/>
</g>
<defs>
<clipPath id="clip0_11_240">
<rect width="32" height="31.9987" fill="white" transform="translate(0 0.996765)"/>
</clipPath>
</defs>
</svg>
