<svg width="32" height="32" viewBox="0 0 32 32" fill="none" xmlns="http://www.w3.org/2000/svg">
<path d="M32 16C32 24.836 24.836 32 16 32C7.164 32 0 24.836 0 16C0 7.164 7.164 0 16 0C24.836 0 32 7.164 32 16Z" fill="#DD4814"/>
<path d="M5.11991 13.864C3.93991 13.864 2.98291 14.82 2.98291 16.001C2.98291 17.182 3.93891 18.137 5.11991 18.137C6.30091 18.137 7.25691 17.18 7.25691 16C7.25691 14.82 6.29991 13.864 5.11991 13.864ZM20.3719 23.574C19.3499 24.174 18.9999 25.47 19.5899 26.491C20.1799 27.512 21.4849 27.863 22.5069 27.273C23.5289 26.683 23.8789 25.378 23.2889 24.356C22.6989 23.334 21.3929 22.986 20.3719 23.574ZM9.75991 16C9.75923 14.9985 10 14.0116 10.4618 13.1229C10.9237 12.2342 11.5929 11.47 12.4129 10.895L10.8519 8.27998C8.95428 9.54637 7.58834 11.4661 7.01391 13.674C7.68991 14.224 8.11991 15.06 8.11991 16C8.11991 16.94 7.68791 17.776 7.01391 18.326C7.59091 20.563 8.98191 22.472 10.8519 23.721L12.4139 21.105C11.5939 20.53 10.9247 19.7657 10.4628 18.8771C10.001 17.9884 9.76023 17.0015 9.76091 16H9.75991ZM15.9999 9.75998C17.5591 9.76009 19.0617 10.3439 20.2119 11.3964C21.3622 12.449 22.0767 13.894 22.2149 15.447L25.2589 15.402C25.114 13.1242 24.132 10.9805 22.5019 9.38298C21.6899 9.68998 20.7519 9.64298 19.9419 9.17498C19.5561 8.95297 19.2247 8.6476 18.9719 8.28118C18.7192 7.91475 18.5514 7.49651 18.4809 7.05698C17.6999 6.83998 16.8599 6.71998 15.9999 6.71998C14.5229 6.71998 13.1269 7.06698 11.8869 7.67998L13.3709 10.34C14.1709 9.96798 15.0609 9.75998 15.9989 9.75998H15.9999ZM15.9999 22.24C15.0599 22.24 14.1699 22.03 13.3719 21.66L11.8879 24.32C13.1279 24.934 14.5239 25.28 16.0009 25.28C16.8387 25.2797 17.6726 25.166 18.4799 24.942C18.6199 24.084 19.1299 23.294 19.9399 22.824C20.7499 22.354 21.6899 22.31 22.4999 22.617C24.13 21.0195 25.112 18.8757 25.2569 16.598L22.2119 16.553C22.0738 18.1055 21.3597 19.5501 20.21 20.6025C19.0604 21.655 17.5585 22.2391 15.9999 22.24ZM20.3719 8.42698C21.3939 9.02698 22.6999 8.66698 23.2889 7.64698C23.8779 6.62698 23.5289 5.31898 22.5089 4.72898C21.4889 4.13898 20.1809 4.48898 19.5909 5.51198C19.0009 6.53498 19.3509 7.83898 20.3729 8.42898L20.3719 8.42698Z" fill="white"/>
</svg>
